<?xml version="1.0" standalone="no"?>
<!DOCTYPE svg PUBLIC "-//W3C//DTD SVG 20010904//EN"
 "http://www.w3.org/TR/2001/REC-SVG-20010904/DTD/svg10.dtd">
<svg version="1.0" xmlns="http://www.w3.org/2000/svg"
 width="16.000000pt" height="16.000000pt" viewBox="0 0 16.000000 16.000000"
 preserveAspectRatio="xMidYMid meet">
<metadata>
Created by potrace 1.11, written by Peter Selinger 2001-2013
</metadata>
<g transform="translate(0.000000,16.000000) scale(0.016000,-0.016000)"
fill="#000000" stroke="none">
<path d="M419 896 c-2 -2 -19 -6 -37 -9 -18 -3 -52 -15 -75 -27 -78 -41 -123
-94 -136 -164 l-8 -46 108 0 c99 0 109 2 109 18 0 33 38 57 93 58 27 1 60 -2
72 -8 31 -14 55 -60 55 -107 l0 -41 -300 0 -300 0 0 -40 0 -40 107 0 107 0
-22 -20 c-37 -35 -56 -82 -58 -148 -4 -105 31 -175 111 -219 44 -24 61 -28
135 -28 96 0 123 12 192 89 29 32 38 37 38 22 0 -10 5 -36 12 -57 l11 -39 110
0 c98 0 108 2 103 17 -18 47 -28 120 -30 233 -2 69 -1 131 2 138 3 8 31 12 93
12 l89 0 0 40 0 40 -90 0 c-49 0 -90 3 -91 8 0 4 -3 34 -5 66 -10 156 -119
247 -300 253 -50 1 -93 1 -95 -1z m181 -520 c0 -66 -22 -97 -85 -121 -31 -12
-57 -15 -88 -11 -72 11 -99 60 -69 123 22 47 63 63 160 63 l82 0 0 -54z"/>
</g>
</svg>
